<?xml version="1.0" standalone="no"?>
<!DOCTYPE svg PUBLIC "-//W3C//DTD SVG 20010904//EN"
 "http://www.w3.org/TR/2001/REC-SVG-20010904/DTD/svg10.dtd">
<svg version="1.0" xmlns="http://www.w3.org/2000/svg"
 width="280.000000pt" height="280.000000pt" viewBox="0 0 280.000000 280.000000"
 preserveAspectRatio="xMidYMid meet">
<metadata>
Created by potrace 1.14, written by Peter Selinger 2001-2017
</metadata>
<g transform="translate(0.000000,280.000000) scale(0.100000,-0.100000)"
fill="#000000" stroke="none">
<path d="M1518 2756 c-9 -8 -15 -21 -14 -28 6 -28 26 -67 38 -74 9 -5 8 -2 -2
10 -13 16 -12 20 5 32 10 8 23 14 28 14 6 0 1 8 -10 18 -11 9 -22 23 -24 31
-4 11 -8 11 -21 -3z m22 -40 c0 -11 -19 -15 -25 -6 -3 5 1 10 9 10 9 0 16 -2
16 -4z"/>
<path d="M1193 2745 c-7 -8 -13 -19 -13 -25 0 -6 -4 -8 -10 -5 -18 11 -11 -22
10 -46 12 -15 19 -18 18 -9 -2 8 2 14 8 13 7 -1 14 7 17 17 7 27 -7 25 -26 -2
-13 -19 -16 -20 -16 -5 -1 9 4 17 10 17 5 0 7 5 4 10 -4 6 -1 9 7 8 7 -2 14 7
16 20 4 25 -7 28 -25 7z"/>
<path d="M1076 2724 c-22 -32 -18 -83 6 -81 12 1 14 5 8 11 -14 14 -13 46 1
46 6 0 9 -9 6 -20 -3 -11 0 -20 6 -20 7 0 13 18 15 39 3 48 -19 61 -42 25z"/>
<path d="M1626 2743 c-10 -11 -6 -83 5 -83 5 0 7 5 4 10 -3 6 -1 10 5 10 6 0
8 6 4 13 -5 9 -4 9 7 -1 10 -9 11 -17 3 -30 -10 -15 -8 -18 7 -18 24 0 26 40
4 63 -8 8 -13 18 -10 23 6 9 -20 21 -29 13z"/>
<path d="M970 2699 c-8 -11 -14 -25 -12 -30 1 -5 -2 -9 -7 -9 -5 0 -8 -11 -8
-25 0 -13 3 -22 8 -19 5 3 18 0 29 -6 17 -9 21 -8 19 2 -1 7 -1 20 0 28 1 12
3 13 10 1 6 -9 8 -4 8 17 -1 17 -5 28 -9 26 -5 -3 -8 4 -8 15 0 27 -12 27 -30
0z m24 -54 c-13 -20 -19 -23 -31 -14 -7 7 -11 14 -8 18 3 3 10 0 14 -8 6 -9
10 -7 14 8 3 12 10 21 16 21 7 0 5 -10 -5 -25z"/>
<path d="M1740 2704 c0 -8 -5 -12 -10 -9 -7 4 -10 -8 -9 -34 2 -23 9 -43 17
-46 7 -2 10 -10 6 -16 -4 -8 0 -8 15 0 11 7 21 16 21 22 0 6 6 7 13 3 8 -5 8
-2 -2 9 -10 12 -10 17 -2 17 8 0 7 6 -3 16 -9 8 -13 20 -10 26 4 7 2 8 -4 4
-7 -4 -12 -1 -12 8 0 9 -4 16 -10 16 -5 0 -10 -7 -10 -16z m24 -67 c3 -19 1
-27 -6 -25 -13 5 -29 54 -20 63 9 9 20 -8 26 -38z"/>
<path d="M1565 2690 c-4 -6 -12 -7 -18 -4 -7 4 -8 3 -4 -1 13 -15 34 -14 34 1
0 17 -4 18 -12 4z"/>
<path d="M859 2668 c-1 -7 -1 -19 0 -27 2 -7 -2 -10 -8 -6 -7 4 -11 -8 -11
-34 0 -48 20 -56 21 -8 l1 32 13 -30 c7 -16 9 -32 4 -35 -4 -3 1 -11 12 -19
17 -10 19 -10 13 0 -4 7 -6 35 -5 61 1 29 -2 48 -8 48 -6 0 -11 7 -11 15 0 18
-19 20 -21 3z"/>
<path d="M1860 2664 c0 -8 -4 -13 -9 -10 -5 3 -11 -10 -13 -29 -2 -19 -1 -35
3 -35 3 0 5 -11 4 -25 -2 -14 0 -25 5 -25 12 0 20 39 9 46 -14 9 -11 18 14 33
19 12 20 12 10 0 -13 -16 -7 -59 8 -59 12 0 11 67 -1 75 -5 3 -10 15 -10 26 0
10 -4 19 -10 19 -5 0 -10 -7 -10 -16z"/>
<path d="M1520 2632 c0 -7 -4 -10 -10 -7 -5 3 -10 1 -10 -5 0 -6 -4 -9 -9 -6
-5 4 -8 -2 -7 -11 3 -20 36 -31 36 -13 0 6 -4 8 -10 5 -5 -3 -10 -1 -10 5 0 7
8 9 20 5 22 -7 25 2 10 25 -7 11 -10 11 -10 2z"/>
<path d="M740 2584 c0 -19 -4 -33 -8 -30 -4 2 -9 -4 -9 -15 -1 -11 3 -17 8
-13 6 3 10 0 8 -7 -3 -25 1 -39 11 -39 6 0 10 18 10 39 0 22 5 41 13 44 9 3
11 -6 9 -33 -2 -21 0 -40 5 -43 5 -3 10 14 12 39 1 35 -3 50 -18 63 -11 10
-18 21 -14 25 3 3 -1 6 -10 6 -13 0 -17 -9 -17 -36z"/>
<path d="M1196 2605 c4 -8 10 -12 15 -9 5 3 9 1 9 -5 0 -5 8 -9 18 -8 10 0 19
7 19 14 0 10 -4 10 -14 1 -10 -8 -12 -8 -8 3 4 10 -2 15 -19 17 -19 1 -24 -2
-20 -13z"/>
<path d="M1963 2600 c-3 -11 -10 -20 -15 -20 -5 0 -8 -25 -7 -55 2 -44 5 -53
16 -43 9 7 10 15 4 22 -6 7 -6 18 -1 26 5 8 6 18 4 22 -3 4 0 8 5 8 6 0 11
-18 11 -40 0 -22 5 -40 10 -40 6 0 9 3 9 8 -5 28 2 52 14 46 9 -6 9 -5 0 7 -7
9 -13 30 -15 47 -3 36 -27 44 -35 12z"/>
<path d="M1090 2595 c-11 -13 -10 -14 4 -9 9 3 16 10 16 15 0 13 -6 11 -20 -6z"/>
<path d="M1599 2603 c-1 -5 -1 -11 0 -15 0 -5 -3 -8 -9 -8 -5 0 -10 -4 -10
-10 0 -5 13 -10 29 -10 23 0 29 4 28 19 0 11 -5 17 -9 15 -5 -3 -5 -11 -1 -17
4 -7 0 -6 -10 2 -9 7 -14 17 -11 22 3 5 3 9 0 9 -3 0 -7 -3 -7 -7z"/>
<path d="M1130 2580 c-8 -5 -18 -6 -22 -4 -4 3 -8 0 -8 -5 0 -6 14 -11 30 -11
17 0 30 4 30 9 0 15 -15 20 -30 11z"/>
<path d="M993 2560 c-11 -16 -10 -18 2 -14 11 5 14 2 9 -12 -4 -11 -4 -16 0
-13 10 10 18 59 9 59 -5 0 -14 -9 -20 -20z"/>
<path d="M1711 2558 c5 -10 17 -18 26 -18 14 0 14 2 -3 16 -10 8 -13 13 -6 9
6 -3 12 -2 12 4 0 5 -9 9 -19 8 -16 -1 -18 -5 -10 -19z"/>
<path d="M1023 2538 c-1 -12 5 -18 18 -18 12 0 19 7 19 19 0 25 -36 24 -37 -1z"/>
<path d="M1680 2544 c0 -9 -5 -12 -12 -8 -7 4 -8 3 -4 -4 7 -12 56 -17 56 -6
0 3 -6 12 -14 20 -19 18 -26 18 -26 -2z"/>
<path d="M640 2509 c0 -21 -4 -28 -12 -23 -10 6 -10 4 0 -7 6 -7 12 -26 12
-43 0 -16 3 -26 7 -23 3 4 12 -1 19 -11 8 -10 13 -12 14 -5 0 7 6 11 13 9 6
-1 9 -1 6 1 -4 2 -5 24 -2 48 3 30 0 45 -7 45 -6 0 -8 5 -5 10 3 6 -1 10 -9
10 -9 0 -16 5 -16 10 0 6 -4 10 -10 10 -5 0 -10 -14 -10 -31z m35 -49 c-2 -11
1 -22 6 -25 5 -4 6 -11 3 -17 -9 -14 -24 11 -24 40 0 12 4 22 9 22 6 0 8 -9 6
-20z"/>
<path d="M2064 2533 c4 -8 1 -13 -8 -13 -9 0 -17 -9 -17 -20 -2 -22 -5 -39 -9
-42 -7 -7 -5 -66 2 -62 4 3 8 0 8 -7 0 -7 3 -9 6 -6 4 4 2 13 -5 20 -9 11 -8
17 2 26 16 13 28 5 20 -15 -3 -8 -2 -14 2 -14 12 0 33 27 35 46 5 44 -1 94
-11 94 -5 0 -7 -6 -3 -12 5 -8 0 -7 -11 2 -11 9 -16 10 -11 3z m15 -78 c2 -12
-1 -16 -12 -12 -8 3 -20 0 -26 -6 -9 -9 -11 -8 -5 6 3 10 13 16 20 13 16 -6
19 10 4 17 -6 3 -5 4 2 3 7 -1 15 -11 17 -21z"/>
<path d="M1800 2523 c-23 -9 -42 -32 -36 -42 4 -6 18 -6 35 -1 16 4 32 6 35 2
3 -3 6 2 6 11 0 10 -6 16 -12 15 -7 -2 -12 3 -10 10 1 6 1 12 0 11 -2 0 -10
-3 -18 -6z"/>
<path d="M945 2510 c3 -6 -1 -7 -9 -4 -10 4 -16 1 -16 -7 0 -11 -3 -11 -10 1
-8 13 -10 12 -10 -2 0 -12 8 -18 23 -19 12 0 30 -2 40 -4 21 -4 22 11 3 31
-17 16 -30 19 -21 4z"/>
<path d="M845 2451 c-3 -6 -14 -8 -25 -6 -11 2 -20 0 -20 -4 0 -14 45 -28 65
-21 11 4 23 6 28 3 4 -2 7 1 7 6 0 6 -7 11 -16 11 -8 0 -12 5 -9 10 3 6 -1 10
-9 10 -8 0 -17 -4 -21 -9z"/>
<path d="M1860 2449 c0 -5 -5 -7 -11 -3 -7 4 -10 1 -7 -7 6 -18 90 -19 94 -1
1 7 0 8 -2 3 -3 -6 -12 -7 -20 -4 -7 3 -11 9 -8 14 3 5 0 9 -5 9 -6 0 -11 -4
-11 -10 0 -5 -5 -10 -11 -10 -5 0 -7 5 -4 10 3 6 1 10 -4 10 -6 0 -11 -5 -11
-11z"/>
<path d="M2156 2427 c-24 -23 -36 -42 -36 -60 0 -15 4 -27 9 -27 5 0 8 11 7
24 -2 14 2 27 9 30 8 3 12 -8 11 -32 -1 -31 -4 -36 -21 -34 -19 3 -19 2 -3
-14 15 -16 18 -15 41 8 20 20 24 34 24 81 1 31 0 57 -2 57 -1 0 -19 -15 -39
-33z"/>
<path d="M540 2396 c0 -34 5 -56 13 -59 9 -4 9 -6 -1 -6 -11 -1 -11 -3 0 -14
21 -21 56 -27 62 -10 10 25 7 85 -4 78 -5 -3 -10 1 -10 11 0 17 -35 54 -52 54
-4 0 -8 -24 -8 -54z m53 -23 c2 -5 7 -19 10 -33 5 -20 2 -26 -12 -27 -14 -1
-17 4 -13 24 3 15 -1 29 -9 34 -11 7 -11 9 3 9 9 0 19 -3 21 -7z"/>
<path d="M1960 2396 c0 -2 7 -7 16 -10 8 -3 12 -2 9 4 -6 10 -25 14 -25 6z"/>
<path d="M776 2374 c-4 -9 -13 -14 -21 -10 -8 3 -15 0 -16 -7 0 -7 -4 -3 -9 8
-8 19 -9 19 -9 -2 -1 -21 4 -23 50 -23 47 0 50 1 38 17 -10 11 -10 14 -1 9 6
-4 12 -5 12 -2 0 3 -9 10 -19 15 -15 8 -20 7 -25 -5z"/>
<path d="M1916 2363 c-7 -18 8 -24 57 -22 25 2 44 7 44 14 0 7 -12 11 -29 9
-17 -2 -27 0 -23 6 3 6 -5 9 -19 8 -14 -1 -28 -8 -30 -15z"/>
<path d="M440 2324 c0 -9 5 -12 13 -8 10 6 10 4 0 -7 -7 -7 -13 -18 -13 -23 0
-6 5 -4 10 4 7 11 10 5 10 -23 0 -38 18 -67 40 -67 6 0 8 -4 5 -10 -3 -5 0 -7
9 -4 15 6 11 34 -5 34 -5 0 -9 12 -9 26 0 14 -4 23 -10 19 -5 -3 -10 -1 -10 4
0 21 31 11 42 -14 6 -14 15 -25 20 -25 5 0 7 -4 3 -9 -3 -5 -1 -12 4 -15 10
-7 9 20 -2 30 -4 4 -7 15 -7 25 0 23 -57 79 -81 79 -11 0 -19 -7 -19 -16z"/>
<path d="M2243 2326 c-13 -6 -23 -17 -23 -24 0 -8 -5 -10 -12 -6 -7 4 -10 3
-5 -1 4 -5 0 -19 -9 -33 -16 -25 -12 -72 7 -72 6 0 7 4 4 10 -3 5 -8 19 -10
31 -3 15 0 19 11 15 8 -3 13 -2 10 2 -7 12 10 35 22 29 5 -4 7 -18 5 -32 -3
-13 -9 -22 -14 -19 -5 3 -9 -2 -9 -10 0 -9 9 -16 20 -16 11 0 19 6 18 13 -2 6
2 11 8 10 8 -1 14 26 17 85 0 6 4 12 9 12 4 0 8 5 8 10 0 13 -28 11 -57 -4z"/>
<path d="M685 2310 c3 -6 -4 -10 -19 -10 -26 0 -30 -20 -8 -42 9 -9 12 -9 12
1 0 7 5 9 10 6 6 -4 8 -10 6 -14 -3 -4 1 -8 9 -8 8 0 12 4 9 9 -3 4 4 8 14 8
11 0 25 7 32 15 10 12 9 16 -6 21 -11 3 -29 10 -42 15 -15 6 -21 6 -17 -1z
m-5 -24 c0 -2 -7 -7 -16 -10 -8 -3 -12 -2 -9 4 6 10 25 14 25 6z"/>
<path d="M2025 2310 c-3 -5 -15 -10 -26 -10 -10 0 -19 -5 -19 -11 0 -5 6 -7
13 -3 9 6 9 5 0 -7 -10 -12 -8 -15 9 -16 12 -1 24 -6 27 -10 9 -12 33 -15 26
-3 -3 5 -1 11 4 11 6 1 16 2 23 3 6 0 13 7 16 14 6 18 -39 32 -57 18 -12 -9
-13 -8 -8 7 7 18 2 23 -8 7z m43 -35 c-3 -3 -9 2 -12 12 -6 14 -5 15 5 6 7 -7
10 -15 7 -18z"/>
<path d="M1160 2225 c0 -10 -5 -13 -12 -9 -6 4 -8 3 -4 -4 3 -6 -1 -17 -9 -25
-8 -9 -15 -23 -15 -31 0 -23 31 -20 37 3 8 32 49 21 44 -11 0 -5 4 -8 9 -8 6
0 10 -4 10 -10 0 -6 -30 -10 -70 -10 -64 0 -89 -10 -57 -23 10 -4 10 -6 0 -6
-7 -1 -13 -6 -13 -12 0 -5 5 -7 10 -4 9 5 11 1 10 -20 0 -3 5 -12 12 -19 14
-15 131 -20 122 -5 -3 5 0 9 6 9 6 0 8 5 5 10 -8 13 -65 9 -65 -5 0 -6 -3 -6
-8 1 -4 6 -15 13 -24 17 -10 3 -18 11 -18 17 0 6 4 9 9 6 5 -4 11 0 14 6 3 10
7 10 19 0 12 -9 18 -10 23 -2 5 8 14 6 28 -7 17 -15 19 -15 15 -2 -7 18 23 23
34 5 5 -6 8 -1 8 12 0 12 -4 22 -10 22 -5 0 -10 7 -10 16 0 9 -5 12 -12 8 -6
-4 -8 -3 -4 4 3 6 -1 17 -9 25 -8 9 -15 18 -15 22 0 3 31 5 68 4 50 -1 69 -6
69 -15 0 -8 -4 -14 -9 -14 -4 0 -8 -5 -8 -11 0 -5 6 -7 13 -3 9 6 9 4 -1 -8
-10 -12 -10 -18 -1 -23 8 -6 8 -10 -2 -16 -10 -6 -10 -13 -1 -34 7 -14 8 -24
4 -21 -11 6 -9 -34 1 -51 5 -7 4 -13 -1 -13 -5 0 -9 -7 -9 -15 0 -8 7 -15 14
-15 8 0 11 -4 8 -10 -3 -5 -1 -10 4 -10 10 0 15 76 12 208 -1 48 4 57 30 54 3
-1 29 -2 57 -3 55 -3 55 -2 10 -53 -21 -23 -23 -52 -6 -62 6 -4 8 -3 5 3 -5 8
45 10 63 3 3 -1 9 -2 14 -1 4 1 15 -4 24 -11 10 -9 13 -9 9 -1 -4 6 -4 14 1
17 4 2 9 -4 9 -15 1 -14 -5 -19 -25 -20 -15 -1 -31 0 -37 1 -15 4 -47 2 -52
-4 -3 -3 1 -12 10 -20 21 -21 85 -27 102 -9 8 7 18 15 22 16 4 1 7 5 5 10 -1
4 2 7 7 7 5 0 11 8 15 18 3 9 9 24 12 32 5 13 4 13 -5 0 -7 -10 -11 -11 -11
-2 0 8 -19 12 -60 12 -64 0 -77 14 -44 47 13 14 17 14 25 2 5 -8 9 -10 9 -5 0
6 7 1 15 -10 9 -12 14 -14 15 -6 0 7 4 11 8 8 5 -3 9 1 9 9 0 8 -4 12 -9 9 -4
-3 -8 0 -8 6 0 6 -7 18 -15 27 -8 8 -13 18 -10 23 3 5 -89 9 -205 10 -186 1
-210 -1 -210 -15z"/>
<path d="M360 2208 c0 -4 5 -8 10 -8 6 0 9 -3 9 -7 -8 -50 26 -105 71 -116 14
-4 19 -4 12 -1 -6 3 -10 10 -6 15 3 5 0 9 -5 9 -6 0 -11 7 -11 16 0 8 -4 12
-10 9 -6 -3 -10 5 -10 19 0 14 5 28 10 31 19 11 10 25 -16 25 -14 0 -23 4 -19
9 3 6 -4 9 -15 8 -11 -1 -20 -5 -20 -9z"/>
<path d="M595 2203 c-15 -35 -12 -39 26 -42 22 -1 39 3 39 9 0 5 9 10 20 10
17 0 19 3 8 19 -14 23 -68 26 -68 4 0 -8 5 -11 10 -8 6 3 10 1 10 -4 0 -6 -12
-11 -26 -11 -23 0 -25 2 -14 15 7 9 11 18 8 21 -3 3 -9 -3 -13 -13z"/>
<path d="M2051 2203 c-7 -8 -11 -15 -10 -16 9 -6 56 -26 71 -31 9 -3 27 4 40
14 13 11 20 20 16 21 -5 1 -14 2 -20 3 -7 1 -12 6 -11 12 3 16 -71 14 -86 -3z
m84 -13 c4 -6 11 -7 17 -4 6 4 8 2 5 -3 -8 -12 -57 -5 -57 8 0 12 27 11 35 -1z"/>
<path d="M2335 2210 c3 -5 -3 -10 -14 -10 -12 0 -21 -4 -21 -10 0 -5 -8 -10
-17 -10 -13 0 -14 -3 -5 -12 8 -8 15 -8 24 0 11 9 14 5 16 -15 2 -20 -1 -23
-12 -14 -11 9 -12 6 -8 -14 2 -15 0 -25 -7 -25 -6 0 -11 -4 -11 -10 0 -18 31
-10 55 14 16 17 20 26 12 29 -9 4 -9 6 1 6 7 1 12 15 12 37 0 24 4 33 12 28 7
-4 8 -3 4 4 -4 7 -16 12 -27 12 -11 0 -17 -4 -14 -10z"/>
<path d="M435 2170 c-3 -5 -1 -10 5 -10 6 0 8 -5 4 -12 -4 -7 -3 -8 4 -4 8 5
12 0 12 -13 0 -12 5 -20 12 -18 7 1 13 -5 14 -13 3 -32 5 -35 14 -20 6 10 4
20 -5 30 -7 8 -15 22 -17 30 -3 15 -23 40 -32 40 -3 0 -8 -4 -11 -10z"/>
<path d="M755 2150 c3 -5 -1 -10 -9 -10 -9 0 -13 -6 -10 -15 3 -8 2 -20 -2
-27 -13 -21 -13 -69 0 -61 6 3 6 0 -1 -8 -7 -7 -13 -17 -13 -22 0 -4 6 -5 13
-1 10 6 10 4 0 -7 -7 -7 -13 -17 -13 -22 0 -4 6 -5 13 -1 10 6 10 4 0 -7 -7
-7 -13 -17 -13 -22 0 -4 6 -5 13 -1 10 6 10 4 0 -7 -16 -16 -17 -33 -2 -23 8
5 8 1 0 -14 -14 -26 -14 -35 0 -26 8 5 8 1 0 -14 -14 -27 -14 -35 2 -26 9 6 9
4 -1 -8 -9 -11 -10 -18 -2 -23 5 -3 10 -15 10 -26 0 -10 5 -19 10 -19 6 0 10
-6 10 -13 0 -7 9 -23 20 -35 11 -12 20 -28 20 -37 0 -8 5 -15 10 -15 6 0 10
-7 10 -16 0 -8 5 -12 10 -9 6 3 10 -1 10 -10 0 -9 7 -23 15 -32 8 -8 12 -19 9
-25 -4 -7 -2 -8 4 -4 7 4 12 1 12 -8 0 -9 5 -16 10 -16 6 0 10 -7 10 -15 0 -9
11 -28 24 -42 14 -15 23 -30 20 -35 -3 -4 0 -8 5 -8 6 0 11 -7 11 -15 0 -8 5
-15 10 -15 6 0 10 -6 10 -14 0 -8 4 -16 10 -18 5 -1 10 -38 11 -80 1 -59 5
-78 15 -78 8 0 16 1 17 3 2 1 12 -5 22 -13 12 -10 16 -10 11 -2 -6 9 -1 12 16
10 12 -2 29 -7 37 -12 10 -6 12 -5 7 3 -9 14 30 11 53 -3 9 -6 12 -5 8 1 -4 7
15 10 51 11 114 0 102 -14 102 123 0 93 -3 119 -12 113 -8 -5 -7 0 2 11 9 11
10 16 3 11 -9 -5 -13 1 -13 18 0 14 -4 26 -8 26 -4 0 -15 12 -24 28 -9 15 -32
43 -51 64 -20 20 -33 39 -30 42 4 3 -1 6 -10 6 -9 0 -17 7 -17 16 0 9 -5 12
-12 8 -6 -4 -8 -3 -5 3 4 6 -15 34 -41 62 -35 37 -55 51 -75 51 -15 0 -27 -6
-27 -12 0 -9 -4 -8 -10 2 -7 11 -10 8 -10 -16 0 -20 -6 -34 -16 -38 -15 -6
-15 -8 2 -28 11 -12 13 -18 7 -14 -8 4 -13 1 -13 -9 0 -9 5 -13 10 -10 6 3 10
-1 10 -11 0 -9 13 -30 30 -45 16 -16 25 -29 20 -29 -6 0 0 -10 12 -23 26 -27
49 -31 40 -9 -4 11 -1 13 9 7 14 -8 -22 36 -53 66 -10 9 -15 19 -11 23 3 3 1
6 -6 6 -7 0 -9 5 -6 10 3 6 1 10 -4 10 -6 0 -11 17 -11 39 0 46 24 58 59 30
14 -12 18 -19 10 -19 -11 0 -11 -2 1 -9 8 -6 18 -7 24 -4 5 3 6 1 2 -5 -3 -6
8 -26 27 -44 34 -34 37 -39 37 -60 0 -9 4 -8 10 2 8 13 10 12 10 -3 0 -11 4
-15 12 -11 6 4 8 3 4 -4 -3 -6 5 -22 19 -36 14 -14 25 -30 25 -36 0 -6 5 -8
10 -5 6 3 10 -2 10 -12 0 -11 5 -24 11 -30 12 -12 18 -202 6 -210 -4 -2 -5 -8
-3 -12 3 -4 -44 -8 -104 -8 -75 0 -107 4 -103 11 3 6 0 5 -8 -1 -30 -29 -39
-15 -39 63 0 47 -4 73 -10 69 -5 -3 -10 2 -10 12 0 10 -9 25 -20 33 -11 8 -20
22 -20 32 0 10 -4 18 -10 18 -5 0 -10 5 -10 11 0 11 -58 100 -71 109 -4 3 -9
12 -11 20 -2 8 -11 23 -20 34 -10 11 -18 26 -18 33 0 8 -4 11 -10 8 -5 -3 -10
2 -10 12 0 10 -11 31 -25 47 -13 16 -22 33 -19 37 3 5 1 9 -5 9 -5 0 -10 64
-10 160 -2 153 -1 160 18 160 11 0 22 -6 24 -12 4 -9 6 -9 6 1 2 24 30 -21 31
-47 0 -13 4 -21 8 -18 5 3 10 -45 11 -107 1 -62 7 -114 13 -118 5 -3 10 -10
11 -15 1 -5 6 -8 10 -6 5 1 6 -2 3 -7 -7 -11 52 -76 61 -67 3 3 3 6 -2 6 -4 0
-2 7 5 15 10 12 9 15 -6 16 -11 0 -14 3 -8 5 7 3 -3 19 -22 39 -22 23 -31 40
-27 52 5 11 3 14 -6 8 -10 -6 -11 -3 -2 13 14 27 15 54 1 32 -6 -9 -10 -10
-10 -3 0 6 5 15 10 18 6 3 10 11 10 16 0 6 -6 7 -12 3 -9 -5 -9 -2 1 9 11 14
11 17 0 17 -10 0 -10 3 -1 12 7 7 8 16 2 23 -6 7 -3 11 11 11 17 0 24 -14 20
-39 -1 -5 3 -6 9 -2 6 4 10 -25 10 -84 0 -50 4 -91 9 -91 19 0 28 29 30 99 2
58 0 72 -11 66 -10 -6 -11 -5 0 6 6 7 12 18 12 24 0 5 -5 3 -10 -5 -8 -12 -10
-11 -10 5 0 11 -9 27 -19 35 -11 7 -18 17 -15 22 3 4 -1 8 -10 8 -8 0 -17 6
-19 13 -4 8 -6 8 -6 -3 -1 -9 -7 -6 -18 10 -10 14 -16 27 -14 29 1 2 -9 11
-23 21 -15 9 -24 18 -22 21 2 2 -11 5 -30 7 -22 1 -33 -2 -29 -8z"/>
<path d="M1926 2149 c3 -5 -5 -9 -17 -9 -12 0 -19 -3 -16 -6 4 -4 -3 -15 -14
-25 -11 -9 -19 -21 -18 -26 1 -4 -15 -16 -36 -26 -20 -10 -39 -27 -42 -37 -3
-11 -9 -17 -14 -14 -5 3 -9 -42 -9 -100 0 -104 0 -106 20 -94 23 14 26 47 8
67 -7 8 -8 11 -2 8 8 -5 12 11 13 49 1 49 16 84 35 84 3 0 6 -42 6 -92 -1 -93
-12 -129 -38 -121 -7 3 -10 -1 -6 -11 3 -9 1 -16 -5 -16 -6 0 -11 -7 -11 -16
0 -9 -5 -12 -12 -8 -7 4 -4 -3 6 -15 l20 -22 16 31 c9 17 19 28 23 24 4 -4 7
-1 7 6 0 7 8 20 18 29 15 13 18 35 20 131 1 69 5 116 12 118 5 2 10 10 10 18
0 8 7 17 15 20 8 4 12 10 9 15 -3 5 8 8 24 7 16 -1 29 -8 29 -15 0 -6 -3 -10
-6 -8 -3 1 -6 -57 -6 -130 0 -74 3 -128 7 -122 11 17 10 0 -1 -21 -5 -9 -16
-32 -23 -49 -7 -18 -16 -33 -19 -33 -4 0 -12 -13 -19 -30 -7 -16 -16 -30 -21
-30 -5 0 -9 -7 -9 -16 0 -9 -9 -25 -21 -35 -11 -9 -20 -20 -20 -23 3 -20 0
-26 -9 -21 -5 3 -10 -3 -10 -14 0 -11 -8 -25 -17 -30 -10 -6 -14 -11 -10 -11
4 0 -1 -10 -13 -22 -11 -12 -20 -28 -20 -35 0 -7 -4 -13 -10 -13 -5 0 -10 -7
-10 -15 0 -8 -4 -15 -10 -15 -5 0 -10 -9 -10 -21 0 -11 -4 -17 -10 -14 -10 6
-11 1 -13 -80 -1 -34 -6 -54 -18 -62 -20 -15 -120 -13 -111 2 3 5 -1 5 -9 -2
-8 -6 -41 -10 -74 -10 -59 2 -60 2 -62 29 0 17 3 25 10 21 6 -4 7 -1 1 8 -14
23 -17 62 -3 53 8 -5 9 -3 3 7 -12 20 -16 51 -8 69 4 8 8 21 10 29 1 8 9 18
16 22 10 7 10 9 0 9 -7 0 -2 11 13 26 14 14 22 30 19 36 -4 7 -2 8 4 4 7 -4
12 -3 12 2 0 5 18 28 40 51 22 22 40 44 40 49 0 18 90 102 110 102 11 0 19 -4
16 -9 -4 -5 0 -11 6 -14 13 -4 13 -4 -22 -79 -8 -16 -17 -28 -22 -28 -4 0 -8
-6 -8 -13 0 -7 -9 -19 -20 -27 -23 -16 -27 -50 -6 -50 7 0 19 7 26 15 7 8 10
15 6 15 -3 0 12 19 34 41 37 38 45 55 41 86 -1 6 8 14 19 18 20 6 19 25 -1 25
-6 0 -7 -4 -4 -10 3 -5 1 -10 -4 -10 -6 0 -11 12 -11 26 0 34 -25 53 -69 54
-19 0 -32 -3 -28 -6 7 -8 -26 -42 -36 -37 -4 3 -7 1 -6 -4 3 -20 -2 -34 -11
-28 -5 3 -10 1 -10 -6 0 -6 -8 -19 -18 -28 -9 -9 -23 -28 -31 -43 -8 -15 -18
-25 -23 -22 -4 3 -8 0 -8 -6 0 -7 -12 -24 -27 -39 -16 -14 -29 -32 -31 -39 -1
-7 -11 -23 -22 -35 -12 -13 -20 -35 -20 -57 0 -20 -5 -41 -11 -47 -8 -8 -8
-13 0 -17 6 -4 11 -12 11 -17 0 -6 -4 -8 -9 -4 -10 5 -8 -18 5 -57 4 -14 3
-18 -6 -13 -8 5 -7 0 2 -14 11 -18 11 -23 -2 -31 -11 -7 -11 -10 -2 -10 7 0
10 -4 7 -10 -5 -8 48 -15 58 -7 2 1 12 -5 22 -13 12 -10 16 -10 11 -2 -6 9 -1
12 16 10 12 -2 29 -7 37 -12 10 -6 12 -5 7 3 -9 14 30 11 53 -3 10 -6 12 -5 7
2 -5 8 6 10 36 8 55 -5 90 8 86 31 -1 10 1 24 6 32 6 9 5 12 -2 7 -12 -7 -11
32 3 53 6 10 4 12 -5 6 -8 -5 -4 5 8 22 12 17 22 36 22 42 0 6 5 11 10 11 6 0
9 3 9 8 -3 19 2 33 11 27 6 -3 10 3 10 14 0 11 8 25 18 30 9 6 13 11 9 11 -4
0 1 10 13 22 11 12 20 28 20 35 0 7 5 13 10 13 6 0 10 6 10 13 0 7 8 22 18 33
9 11 18 26 20 34 2 8 8 17 13 18 5 2 9 10 9 18 0 8 5 14 10 14 6 0 10 7 10 15
0 8 5 15 10 15 6 0 10 9 10 21 0 11 5 17 10 14 11 -7 12 8 11 213 -1 100 -5
147 -14 156 -14 13 -69 18 -61 5z"/>
<path d="M2252 2145 c-9 -11 -9 -15 -1 -15 8 0 8 -4 -1 -16 -11 -13 -10 -19
10 -37 23 -21 23 -21 7 -1 -16 19 -16 23 -3 37 12 12 13 17 3 20 -9 4 -9 6 1
6 6 1 12 6 12 11 0 14 -13 12 -28 -5z"/>
<path d="M567 2104 c4 -12 3 -15 -5 -10 -6 4 -20 -2 -32 -14 -15 -15 -17 -20
-5 -20 8 0 15 -4 15 -9 0 -11 35 -9 62 3 10 5 15 12 12 17 -3 5 2 9 10 9 9 0
16 8 16 18 0 14 -9 19 -40 20 -34 2 -39 0 -33 -14z m31 -6 c-6 -28 -58 -52
-58 -27 0 6 7 9 15 5 9 -3 19 3 25 14 12 23 21 26 18 8z"/>
<path d="M2100 2105 c0 -25 47 -65 76 -65 22 0 25 2 14 15 -10 12 -16 13 -29
3 -14 -12 -14 -11 -2 5 7 9 19 17 26 17 7 0 15 7 19 15 4 13 2 13 -14 5 -13
-7 -21 -7 -26 2 -5 7 -3 8 6 3 9 -5 11 -4 6 3 -11 19 -76 15 -76 -3z m48 -20
c-3 -3 -9 2 -12 12 -6 14 -5 15 5 6 7 -7 10 -15 7 -18z"/>
<path d="M301 2083 c-1 -6 4 -15 9 -18 6 -3 10 -15 10 -26 0 -10 5 -19 10 -19
6 0 10 -7 10 -16 0 -18 23 -44 40 -44 6 0 8 -4 5 -10 -4 -6 5 -10 21 -10 l27
0 -27 26 c-14 15 -26 33 -26 40 0 8 -4 14 -10 14 -5 0 -10 4 -10 8 0 4 9 8 20
8 19 0 25 -9 21 -29 -1 -5 3 -6 8 -3 5 4 11 0 13 -9 2 -9 8 -12 16 -6 11 6 4
18 -27 51 -34 35 -45 42 -70 38 -17 -2 -33 0 -35 6 -3 7 -5 7 -5 -1z"/>
<path d="M2210 2075 c-9 -10 -9 -15 -1 -15 6 0 11 5 11 11 0 8 6 7 18 -2 15
-13 16 -12 3 4 -16 21 -16 21 -31 2z"/>
<path d="M2356 2069 c2 -4 -5 -10 -16 -14 -24 -7 -27 -35 -4 -35 8 0 13 4 9 9
-3 6 3 9 13 8 17 -1 17 -3 5 -29 -8 -15 -19 -28 -25 -28 -6 0 -8 -3 -5 -7 4
-3 -1 -12 -11 -19 -16 -12 -16 -13 3 -13 24 0 55 21 55 38 0 7 5 9 10 6 6 -4
10 5 10 20 0 18 4 24 13 19 6 -4 9 -4 5 0 -4 5 -3 19 3 32 8 24 7 25 -30 22
-22 -1 -38 -5 -35 -9z"/>
<path d="M2300 2011 c0 -6 5 -13 10 -16 6 -3 10 1 10 9 0 9 -4 16 -10 16 -5 0
-10 -4 -10 -9z"/>
<path d="M551 2002 c-23 -4 -81 -52 -62 -52 5 0 16 7 25 15 16 17 46 20 46 6
0 -5 -6 -11 -12 -14 -9 -3 -10 -8 -2 -16 8 -9 16 -7 32 7 12 11 22 25 22 31 0
7 5 9 12 5 6 -4 8 -3 5 3 -9 14 -36 20 -66 15z"/>
<path d="M2245 2001 c-3 -5 -2 -12 3 -15 5 -3 9 1 9 9 0 17 -3 19 -12 6z"/>
<path d="M2120 1993 c0 -3 14 -18 32 -34 23 -23 34 -27 42 -18 8 8 8 13 -1 16
-18 6 -16 23 1 23 8 0 17 4 20 9 3 4 -17 8 -44 8 -28 0 -50 -2 -50 -4z"/>
<path d="M2285 1975 c3 -35 13 -42 13 -10 0 14 -4 28 -8 30 -5 3 -7 -6 -5 -20z"/>
<path d="M443 1965 c-3 -9 -3 -19 1 -22 3 -4 6 -1 6 6 0 7 4 9 10 6 6 -3 7 1
4 9 -8 20 -13 20 -21 1z"/>
<path d="M2215 1970 c-3 -5 1 -10 9 -10 9 0 16 5 16 10 0 6 -4 10 -9 10 -6 0
-13 -4 -16 -10z"/>
<path d="M2257 1955 c-4 -8 -2 -15 3 -15 5 0 7 -9 5 -20 -2 -11 0 -22 5 -25 8
-5 5 63 -3 72 -3 2 -7 -3 -10 -12z"/>
<path d="M260 1930 c-13 -9 -7 -14 13 -11 4 0 6 -2 6 -6 -7 -42 51 -107 99
-111 21 -2 34 1 37 11 6 15 35 19 35 5 0 -4 -5 -8 -11 -8 -8 0 -8 -4 1 -15 6
-8 8 -20 4 -26 -4 -8 -3 -9 5 -5 6 4 9 16 6 26 -4 12 3 25 20 38 14 11 21 23
16 26 -5 3 -11 -1 -15 -9 -8 -21 -29 -19 -22 3 5 15 5 15 -8 -1 -14 -18 -15
-18 -25 1 -6 11 -7 23 -3 27 4 3 0 5 -8 3 -9 -2 -14 3 -12 11 2 9 -3 11 -13 7
-9 -3 -14 -2 -10 3 7 12 -51 41 -79 41 -12 0 -28 -5 -36 -10z m136 -76 c13
-12 19 -26 15 -33 -10 -16 -71 40 -71 64 0 19 11 13 56 -31z"/>
<path d="M510 1930 c0 -5 7 -10 15 -10 8 0 15 5 15 10 0 6 -7 10 -15 10 -8 0
-15 -4 -15 -10z"/>
<path d="M2200 1929 c0 -11 27 -12 34 -1 2 4 -4 9 -15 9 -10 1 -19 -2 -19 -8z"/>
<path d="M2415 1929 c-4 -6 -13 -8 -21 -5 -8 3 -23 -4 -34 -16 -22 -24 -25
-34 -10 -43 6 -3 10 1 10 11 0 14 2 15 17 3 15 -13 15 -12 4 8 -10 19 -9 22 4
17 33 -13 2 -64 -55 -91 -23 -11 -21 -12 22 -11 26 1 45 5 42 10 -3 4 1 8 10
8 8 0 20 14 28 30 7 17 16 30 20 30 5 0 8 9 8 21 0 11 5 17 10 14 6 -3 10 0
10 7 0 17 -56 23 -65 7z"/>
<path d="M1303 1899 c1 -16 9 -18 67 -17 59 1 66 4 68 22 1 17 -1 18 -8 6 -6
-9 -10 -10 -10 -3 0 8 -20 12 -59 12 -52 -1 -59 -3 -58 -20z"/>
<path d="M441 1884 c0 -11 3 -14 6 -6 3 7 2 16 -1 19 -3 4 -6 -2 -5 -13z"/>
<path d="M545 1890 c-3 -5 -15 -10 -26 -10 -10 0 -19 -4 -19 -10 0 -9 14 -14
33 -11 14 2 7 -14 -13 -27 -25 -16 -26 -31 -1 -29 11 0 17 5 15 9 -3 4 0 8 7
8 16 0 38 31 39 53 0 12 5 16 13 11 9 -5 9 -4 0 6 -10 11 -15 11 -29 -1 -12
-9 -15 -10 -10 -1 4 6 5 12 2 12 -3 0 -8 -4 -11 -10z"/>
<path d="M2143 1883 c0 -7 4 -10 9 -7 4 3 8 -2 8 -11 0 -26 46 -65 74 -63 13
1 22 6 19 11 -3 5 -14 7 -24 4 -11 -3 -16 -1 -13 5 4 6 0 14 -7 19 -12 8 -12
10 1 18 17 12 33 4 24 -11 -4 -7 -2 -8 4 -4 7 4 12 2 12 -3 0 -6 5 -11 10 -11
6 0 3 11 -7 25 -11 15 -28 24 -45 25 -16 0 -28 4 -28 8 0 4 -8 8 -18 8 -10 0
-19 -6 -19 -13z"/>
<path d="M2317 1860 c-4 -14 -10 -18 -23 -13 -13 5 -16 3 -11 -10 3 -9 2 -19
-2 -22 -10 -6 -2 -45 9 -45 4 0 7 10 6 23 -1 12 8 29 19 37 20 15 26 32 14 45
-4 3 -9 -3 -12 -15z"/>
<path d="M475 1810 c-3 -5 -1 -10 4 -10 6 0 11 5 11 10 0 6 -2 10 -4 10 -3 0
-8 -4 -11 -10z"/>
<path d="M224 1768 c-4 -7 -3 -8 4 -4 7 4 12 4 12 -1 0 -4 11 -21 25 -37 14
-16 25 -33 25 -38 0 -4 7 -8 15 -8 8 0 15 -4 15 -9 0 -8 40 -23 68 -25 19 -1
17 17 -4 29 -21 12 -52 42 -74 70 -14 19 -14 19 2 6 10 -7 27 -11 38 -8 10 3
19 2 18 -2 -3 -18 15 -39 29 -34 10 4 14 2 10 -4 -8 -14 19 -37 32 -28 7 4 9
-9 5 -39 -4 -38 -2 -46 16 -56 16 -9 19 -15 10 -25 -12 -14 -10 -76 2 -69 4 3
8 -6 8 -20 0 -14 5 -26 10 -26 14 0 12 33 -3 54 -17 24 -10 67 9 59 10 -4 12
0 7 13 -5 14 -3 16 12 11 15 -6 16 -5 5 8 -9 11 -9 15 -1 15 7 0 9 5 6 10 -9
15 -25 12 -25 -6 0 -8 -4 -12 -10 -9 -6 4 -7 -1 -3 -10 5 -15 3 -15 -14 -4
-12 7 -19 20 -18 28 2 9 4 31 4 50 l1 34 23 -19 22 -19 -18 21 c-14 17 -15 23
-5 28 7 3 3 3 -8 1 -18 -5 -21 -1 -19 20 2 14 -1 25 -5 25 -5 0 -9 -8 -9 -17
-1 -42 -5 -53 -15 -50 -6 3 -10 10 -8 16 3 16 -43 61 -63 61 -8 0 -15 5 -15
10 0 14 -107 13 -116 -2z m170 -106 c3 -5 -1 -9 -9 -9 -8 0 -12 4 -9 9 3 4 7
8 9 8 2 0 6 -4 9 -8z"/>
<path d="M530 1765 c-7 -9 -15 -13 -18 -11 -5 6 -32 -19 -32 -29 0 -3 7 -5 16
-3 10 2 19 -3 21 -9 3 -7 0 -13 -6 -13 -6 0 -11 -4 -11 -10 0 -5 7 -10 16 -10
20 0 56 39 48 51 -3 5 0 9 5 9 6 0 11 9 11 20 0 24 -32 27 -50 5z m10 -35 c0
-5 -4 -10 -9 -10 -6 0 -13 5 -16 10 -3 6 1 10 9 10 9 0 16 -4 16 -10z"/>
<path d="M2162 1750 c1 -16 6 -30 10 -30 4 0 8 -7 8 -16 0 -14 3 -14 15 -4 13
11 14 10 9 -4 -4 -11 -1 -16 11 -16 18 0 41 19 40 36 0 14 -31 44 -45 44 -6 0
-8 5 -5 10 4 6 -5 10 -20 10 -22 0 -25 -4 -23 -30z m58 -20 c0 -5 -4 -10 -10
-10 -5 0 -10 5 -10 10 0 6 5 10 10 10 6 0 10 -4 10 -10z m16 -27 c-10 -10 -19
5 -10 18 6 11 8 11 12 0 2 -7 1 -15 -2 -18z"/>
<path d="M2395 1770 c3 -5 -1 -10 -10 -10 -16 0 -45 -22 -45 -35 0 -10 34 -1
48 13 18 16 32 15 32 -3 0 -8 -7 -15 -16 -15 -8 0 -13 -4 -10 -8 12 -20 -49
-35 -84 -22 -3 1 -8 2 -12 1 -4 0 -5 15 -3 34 3 19 1 35 -4 35 -5 0 -8 -8 -6
-17 1 -10 -3 -28 -11 -40 -12 -19 -12 -22 0 -17 11 4 13 -3 11 -29 -2 -18 1
-40 5 -48 6 -9 9 -4 8 16 -1 57 2 71 11 56 5 -7 14 -10 20 -7 9 6 15 -4 13
-24 0 -3 8 -6 18 -6 10 0 16 4 14 8 -3 4 4 8 16 8 27 0 103 77 96 97 -3 8 -2
11 3 8 5 -3 12 -1 16 5 4 6 -16 10 -55 10 -38 0 -59 -4 -55 -10z"/>
<path d="M2320 1715 c0 -8 7 -15 16 -15 14 0 14 3 4 15 -7 8 -14 15 -16 15 -2
0 -4 -7 -4 -15z"/>
<path d="M532 1644 c-15 -17 -6 -38 14 -30 15 6 -21 -64 -40 -76 -8 -6 -8 -8
1 -8 7 0 18 6 25 14 11 11 15 11 24 -3 10 -13 11 -11 7 13 -4 20 -2 27 6 22 7
-5 11 3 11 24 0 17 4 29 8 26 4 -2 9 4 9 15 1 14 -5 19 -25 19 -15 -1 -33 -7
-40 -16z"/>
<path d="M2137 1648 c4 -7 8 -15 9 -18 1 -3 5 -20 9 -37 4 -18 11 -30 16 -27
5 3 9 -2 9 -10 0 -9 9 -16 20 -16 23 0 24 3 8 30 -10 15 -10 22 0 32 9 9 12 8
12 -5 0 -9 5 -17 11 -17 7 0 9 -10 4 -27 -6 -26 -5 -27 8 -9 12 17 12 24 -6
58 -12 21 -27 38 -34 38 -8 0 -11 5 -8 10 4 6 -8 10 -30 10 -27 0 -34 -3 -28
-12z m63 -38 c0 -5 -2 -10 -4 -10 -3 0 -8 5 -11 10 -3 6 -1 10 4 10 6 0 11 -4
11 -10z"/>
<path d="M240 1601 c-7 -15 -8 -21 0 -21 6 0 27 -16 46 -35 19 -20 39 -33 45
-30 5 4 9 1 9 -4 0 -16 73 -13 95 2 16 13 15 14 -16 10 -26 -3 -30 -2 -19 6
12 9 10 11 -12 11 -16 0 -28 5 -28 11 0 5 -4 8 -9 5 -4 -3 -17 4 -27 16 -19
21 -19 21 6 15 14 -4 33 -7 43 -7 11 0 15 -4 11 -12 -4 -6 -3 -8 4 -4 6 3 18
-1 27 -10 21 -22 31 -11 13 15 -8 12 -18 18 -21 14 -4 -3 -7 -1 -7 5 0 7 -7
12 -16 12 -8 0 -13 4 -10 8 3 5 -24 10 -59 11 -55 2 -65 -1 -75 -18z"/>
<path d="M2370 1610 c12 -8 11 -10 -7 -10 -13 0 -23 -4 -23 -10 0 -5 16 -9 35
-8 19 1 32 5 29 10 -3 4 0 8 5 8 20 0 11 -32 -9 -37 -11 -3 -20 -9 -20 -14 0
-5 -7 -9 -16 -9 -8 0 -22 -7 -31 -15 -8 -8 -19 -13 -24 -10 -5 4 -9 1 -9 -4 0
-7 22 -11 53 -11 54 0 95 23 110 63 3 9 13 17 22 17 9 0 15 9 15 23 0 18 -2
19 -10 7 -6 -10 -10 -11 -10 -2 0 8 -19 12 -62 12 -45 0 -59 -3 -48 -10z"/>
<path d="M2264 1545 c1 -19 -4 -37 -11 -39 -6 -3 -10 -16 -9 -31 4 -29 -12
-44 -25 -24 -6 11 -11 11 -21 1 -9 -9 -9 -12 1 -12 7 0 10 -4 6 -9 -3 -5 -1
-12 5 -16 6 -4 8 -11 5 -16 -4 -5 -1 -10 4 -10 6 -1 17 -2 24 -3 6 -1 11 -8 9
-15 -1 -7 2 -10 7 -7 5 3 14 -1 21 -9 26 -31 111 -15 151 28 9 9 23 17 32 17
9 0 15 8 14 19 0 11 -4 18 -8 16 -3 -3 -15 2 -25 10 -21 16 -104 20 -104 6 0
-5 -12 -11 -27 -13 -16 -2 -27 -8 -26 -15 2 -7 -4 -10 -12 -7 -8 4 -15 1 -15
-5 0 -6 9 -11 20 -11 11 0 20 4 20 9 0 12 70 19 77 8 3 -5 9 -3 14 4 6 10 9
10 9 2 0 -15 -54 -40 -97 -45 -26 -4 -38 1 -57 22 -23 26 -23 27 -4 39 14 9
19 20 15 37 -3 15 0 24 9 24 8 0 13 14 12 40 0 22 -4 40 -8 40 -4 0 -7 -16 -6
-35z"/>
<path d="M2300 1559 c-7 -11 -9 -23 -6 -27 3 -3 6 0 6 7 0 7 5 9 12 5 7 -5 9
-2 6 8 -5 11 0 14 20 11 21 -4 24 -2 12 6 -23 16 -38 13 -50 -10z"/>
<path d="M605 1550 c3 -5 0 -10 -8 -10 -8 0 -20 -7 -27 -15 -7 -8 -16 -12 -21
-9 -5 3 -9 -4 -9 -15 0 -12 -5 -21 -11 -21 -5 0 -8 -4 -4 -10 3 -5 -3 -18 -14
-29 -11 -11 -17 -22 -14 -25 3 -3 1 -11 -5 -19 -8 -10 -7 -13 8 -14 11 -1 20
7 24 20 5 17 8 19 15 8 13 -20 73 23 64 46 -4 11 -3 14 5 9 9 -5 12 7 12 43 0
29 -5 51 -11 51 -5 0 -7 -4 -4 -10z m-25 -69 c0 -28 -27 -75 -35 -61 -4 6 -14
9 -24 6 -14 -5 -13 -4 2 8 9 7 17 21 17 30 0 9 5 16 11 16 5 0 8 -4 4 -9 -3
-5 -1 -12 4 -16 6 -3 8 5 5 20 -2 14 0 25 6 25 5 0 10 -8 10 -19z"/>
<path d="M2127 1554 c-22 -22 4 -134 31 -134 7 0 11 -4 8 -8 -2 -4 4 -8 14 -8
18 0 18 1 -1 27 -24 34 -27 78 -4 59 8 -7 12 -16 9 -21 -3 -5 0 -9 5 -9 18 0
12 35 -8 50 -11 7 -18 17 -15 22 3 4 -1 8 -10 8 -8 0 -16 5 -18 11 -2 5 -7 7
-11 3z"/>
<path d="M296 1445 c-10 -8 -23 -12 -27 -9 -5 3 -9 -4 -9 -15 0 -12 6 -21 14
-21 7 0 27 -14 45 -30 17 -17 31 -25 31 -18 0 10 2 10 9 0 5 -8 25 -12 53 -11
36 2 45 6 40 18 -4 10 -1 13 12 8 10 -4 15 -3 11 3 -3 6 -21 10 -39 10 -30 0
-96 25 -96 36 0 7 92 2 105 -5 17 -9 35 -10 35 0 0 5 -7 9 -16 9 -8 0 -12 5
-9 10 4 6 -7 10 -25 10 -18 0 -29 4 -25 10 10 16 -87 11 -109 -5z m89 -5 c-3
-5 -12 -10 -18 -10 -7 0 -6 4 3 10 19 12 23 12 15 0z"/>
<path d="M645 1430 c3 -5 1 -10 -5 -10 -15 0 -40 -25 -40 -40 0 -6 -4 -9 -8
-6 -5 3 -8 -17 -8 -44 1 -38 -1 -46 -11 -38 -7 6 -13 19 -13 29 0 11 -4 19
-10 19 -5 0 -10 12 -11 28 l0 27 -12 -23 c-6 -14 -7 -26 -1 -30 5 -4 10 -14
12 -22 2 -8 8 -16 13 -18 5 -2 9 -12 9 -23 0 -10 4 -19 8 -19 17 0 32 25 32
55 1 24 28 81 31 64 9 -47 9 -60 -1 -54 -6 4 -10 -4 -10 -19 0 -14 3 -26 6
-26 11 0 34 29 34 44 0 8 5 18 10 21 6 3 10 11 10 16 0 6 -6 7 -12 3 -10 -6
-10 -4 0 8 10 12 10 18 1 23 -8 6 -8 9 1 15 15 10 4 30 -16 30 -8 0 -12 -4 -9
-10z"/>
<path d="M2060 1432 c0 -4 6 -14 13 -21 10 -11 10 -13 0 -7 -22 12 -15 -62 8
-95 24 -33 38 -37 36 -10 0 11 -5 17 -9 15 -4 -3 -8 8 -8 25 0 16 5 33 11 37
8 5 10 -1 7 -20 -6 -28 6 -36 16 -10 11 28 7 44 -17 67 -23 23 -57 34 -57 19z"/>
<path d="M2200 1366 c0 -8 5 -18 10 -21 6 -3 10 3 10 14 0 12 -4 21 -10 21 -5
0 -10 -6 -10 -14z"/>
<path d="M2146 1338 c-7 -32 -4 -58 5 -52 4 2 9 -4 11 -13 3 -14 8 -9 21 16
21 42 22 57 2 41 -8 -7 -12 -16 -9 -21 3 -5 0 -9 -5 -9 -11 0 -15 12 -12 43 3
25 -8 21 -13 -5z"/>
<path d="M720 1330 c0 -5 -6 -9 -12 -7 -7 1 -12 -4 -10 -10 1 -7 -2 -13 -8
-13 -5 0 -10 -9 -10 -21 0 -11 -4 -17 -10 -14 -7 4 -10 -8 -8 -36 1 -26 -2
-44 -10 -47 -7 -2 -12 -11 -12 -19 0 -14 3 -14 20 2 11 10 18 21 15 25 -2 3 2
18 10 33 7 14 11 27 9 30 -2 2 2 4 9 4 9 0 14 -12 14 -33 0 -20 -4 -31 -10
-27 -6 4 -8 -1 -4 -11 4 -10 7 -20 7 -23 0 -2 7 2 15 11 8 8 15 24 15 35 0 12
4 21 8 21 5 0 9 7 9 15 0 8 -4 15 -9 15 -4 0 -7 3 -7 8 4 26 -3 72 -11 72 -5
0 -10 -4 -10 -10z"/>
<path d="M2000 1314 c0 -14 -3 -23 -7 -21 -5 3 -9 -15 -10 -39 -1 -29 3 -42
10 -37 5 3 7 1 4 -4 -4 -6 2 -22 12 -34 l20 -24 -6 51 c-3 32 -1 54 6 58 7 5
11 -3 11 -19 0 -15 4 -24 10 -20 5 3 9 -2 7 -12 -1 -10 3 -18 8 -18 12 0 14
54 3 61 -4 3 -8 12 -8 20 0 14 -43 64 -55 64 -3 0 -5 -12 -5 -26z"/>
<path d="M352 1284 c-7 -8 -19 -11 -25 -8 -7 4 -9 4 -5 -1 4 -4 0 -14 -10 -21
-16 -12 -15 -13 6 -14 12 0 22 -4 22 -10 0 -5 9 -10 20 -10 11 0 20 -4 20 -10
0 -5 9 -10 20 -10 11 0 20 -4 20 -8 0 -14 60 -12 83 3 13 8 27 13 30 10 4 -3
3 0 -2 7 -6 6 -20 12 -33 13 -13 1 -30 5 -38 8 -8 3 -24 7 -35 9 -31 5 -24 32
8 36 16 2 34 0 40 -5 22 -16 74 -16 74 1 0 11 -5 13 -18 5 -25 -13 -32 -11
-25 6 8 22 -133 21 -152 -1z"/>
<path d="M2240 1290 c0 -6 -4 -9 -9 -6 -10 6 -48 -20 -41 -28 3 -3 17 1 31 8
26 13 95 20 111 10 17 -10 -14 -34 -44 -34 -16 0 -27 -4 -24 -8 3 -5 -1 -9 -9
-9 -8 0 -12 4 -9 9 3 5 -7 7 -23 5 -17 -3 -39 4 -57 16 l-29 21 5 -21 c4 -15
2 -20 -8 -16 -8 3 -12 -3 -11 -16 2 -26 5 -26 27 1 15 19 20 20 34 9 9 -7 24
-10 33 -7 15 5 15 4 -1 -9 -19 -15 -19 -15 2 -15 12 0 22 -4 22 -8 0 -4 14 -9
30 -10 17 -1 30 2 30 8 0 5 14 10 30 10 17 0 30 5 30 10 0 6 12 10 28 10 18 0
23 3 14 9 -10 6 -8 10 10 16 19 6 20 8 5 12 -9 2 -15 9 -12 14 4 5 -1 9 -9 9
-9 0 -16 4 -16 8 0 5 -31 10 -70 11 -46 1 -70 -2 -70 -9z"/>
<path d="M594 1262 c-16 -10 -13 -41 3 -35 9 4 11 0 7 -11 -3 -9 -1 -16 5 -16
6 0 11 9 11 20 0 11 -5 20 -11 20 -6 0 -9 7 -5 15 6 17 5 18 -10 7z"/>
<path d="M540 1240 c-9 -6 -10 -10 -3 -10 6 0 15 5 18 10 8 12 4 12 -15 0z"/>
<path d="M795 1227 c-21 -25 -34 -64 -37 -108 -2 -35 0 -45 13 -46 13 -1 15 7
11 43 -2 28 0 44 7 44 6 0 11 -5 11 -11 0 -5 4 -8 8 -5 5 3 9 -1 9 -9 0 -8 -5
-11 -11 -8 -7 4 -6 1 1 -8 6 -8 12 -17 12 -22 0 -4 5 -15 10 -25 9 -15 10 -14
11 7 0 18 4 22 18 17 15 -6 15 -5 -1 8 -10 8 -14 17 -9 20 10 6 -8 76 -20 76
-5 0 -8 9 -8 20 0 22 -10 25 -25 7z"/>
<path d="M1920 1224 c0 -8 -5 -12 -10 -9 -6 4 -10 3 -9 -2 1 -4 1 -21 0 -38
-1 -23 -3 -27 -11 -15 -7 11 -9 5 -7 -22 1 -21 5 -38 10 -38 4 0 7 -9 7 -20 0
-11 5 -20 10 -20 6 0 10 18 10 41 0 29 3 38 13 33 9 -6 9 -5 0 7 -10 12 -9 15
5 16 12 1 18 -7 19 -30 1 -17 7 -35 13 -41 15 -15 12 -26 -6 -26 -8 0 -12 4
-9 10 3 5 2 17 -3 26 -7 12 -9 3 -9 -30 0 -36 3 -46 14 -42 7 3 16 0 19 -8 3
-8 23 -14 52 -15 70 -3 72 -4 72 -13 0 -5 4 -7 9 -4 5 3 14 -1 21 -9 9 -11 9
-15 1 -15 -7 0 -9 -5 -5 -11 5 -8 1 -8 -13 0 -14 7 -24 7 -33 -2 -10 -9 -11
-9 -6 1 5 8 -3 12 -29 12 -20 0 -34 4 -31 8 3 5 -9 8 -26 8 -27 0 -29 -1 -12
-13 10 -7 15 -13 11 -13 -5 0 -2 -6 5 -14 7 -8 16 -12 21 -9 4 2 7 -1 7 -7 0
-6 4 -9 9 -6 5 4 11 2 13 -3 3 -9 44 -14 111 -12 21 1 36 5 33 9 -3 5 1 9 9 9
8 0 12 -4 9 -8 -2 -4 5 -7 16 -6 18 1 30 17 12 17 -4 0 -13 14 -20 30 -8 17
-20 30 -28 30 -9 0 -12 5 -8 12 4 6 3 8 -4 4 -6 -3 -17 1 -26 9 -15 16 -85 23
-104 11 -6 -3 -14 -1 -18 5 -4 7 -3 9 2 6 6 -3 16 -1 24 4 12 7 10 8 -7 6 -11
-2 -28 -9 -36 -15 -12 -10 -17 -10 -23 -1 -4 7 -3 14 4 17 6 2 8 10 5 19 -4
11 -2 14 5 9 7 -4 26 8 45 27 29 30 38 34 75 31 23 -1 44 2 48 7 3 6 11 5 21
-2 12 -10 16 -10 24 2 6 10 9 10 9 2 0 -7 9 -13 20 -13 11 0 20 -4 20 -10 0
-5 -8 -10 -18 -10 -10 0 -24 -6 -31 -12 -11 -10 -13 -10 -7 0 8 14 -10 17 -19
2 -4 -6 -13 -7 -23 -2 -9 5 -32 9 -50 10 -28 2 -31 0 -20 -12 7 -8 15 -12 17
-10 2 2 11 -4 20 -14 11 -13 33 -19 74 -21 31 -1 57 1 57 6 0 8 28 13 81 16
12 1 13 6 5 23 -6 13 -13 21 -15 18 -2 -2 -12 6 -22 18 -11 11 -19 18 -19 13
0 -4 -7 -2 -15 5 -8 6 -20 8 -26 4 -8 -4 -9 -3 -5 4 10 16 -106 16 -122 0 -9
-9 -18 -8 -39 3 -16 8 -31 18 -35 24 -5 7 -8 6 -8 0 0 -6 5 -16 10 -21 7 -7 4
-17 -8 -30 -18 -19 -22 -26 -22 -41 0 -5 -5 -1 -10 7 -7 11 -10 12 -10 2 0 -8
-5 -12 -12 -10 -8 3 -11 21 -9 51 1 29 -2 47 -8 47 -6 0 -11 7 -11 16 0 15
-23 44 -34 44 -3 0 -6 -7 -6 -16z m234 -82 c3 -5 -1 -9 -9 -9 -8 0 -15 4 -15
9 0 4 4 8 9 8 6 0 12 -4 15 -8z"/>
<path d="M750 1211 c0 -6 4 -13 10 -16 6 -3 7 1 4 9 -7 18 -14 21 -14 7z"/>
<path d="M2103 1203 c-4 -10 -11 -21 -17 -25 -6 -4 -7 -10 -4 -14 10 -9 35 18
35 39 0 22 -6 22 -14 0z"/>
<path d="M620 1190 c0 -5 5 -10 10 -10 6 0 10 5 10 10 0 6 -4 10 -10 10 -5 0
-10 -4 -10 -10z"/>
<path d="M660 1155 c-12 -14 -70 -26 -70 -14 0 4 6 10 13 12 6 3 -19 6 -56 6
-43 1 -66 -3 -62 -9 3 -5 -3 -10 -15 -10 -21 0 -34 -8 -70 -44 -25 -24 -25
-38 -2 -35 38 3 73 -1 68 -10 -3 -5 25 -9 64 -9 39 0 67 4 64 9 -3 5 0 9 6 9
12 0 40 24 40 34 0 11 -86 6 -97 -5 -8 -8 -13 -8 -17 0 -4 6 -16 11 -27 11
-10 0 -19 5 -19 10 0 6 8 10 18 10 10 0 24 6 31 13 11 10 13 10 7 0 -4 -7 -3
-13 3 -13 5 0 11 5 13 12 3 8 11 9 24 3 10 -5 36 -9 56 -10 25 0 43 -8 57 -24
12 -13 25 -20 32 -15 8 4 9 3 5 -5 -5 -7 2 -20 15 -32 19 -17 21 -22 9 -29 -9
-5 -17 -5 -20 1 -4 5 -16 11 -29 14 -12 2 -19 0 -16 -6 4 -5 -13 -9 -39 -9
-25 0 -46 -4 -46 -10 0 -5 -9 -10 -21 -10 -11 0 -17 -4 -14 -10 3 -5 1 -10 -6
-10 -14 0 -59 -50 -59 -66 0 -7 26 -12 71 -13 38 -1 73 -2 77 -2 25 -4 52 3
47 11 -3 6 3 10 15 10 11 0 23 7 26 15 4 8 9 13 13 11 4 -3 8 4 8 15 1 13 -5
19 -20 19 -18 0 -19 -2 -7 -10 16 -10 5 -12 -65 -12 -16 0 -36 -5 -44 -12 -12
-8 -13 -8 -7 2 4 6 2 12 -3 12 -20 0 -11 18 12 25 38 12 51 14 99 16 26 1 45
6 42 11 -10 15 17 8 37 -10 10 -11 31 -25 44 -32 22 -12 27 -11 40 6 8 10 15
14 15 8 0 -5 -5 -15 -12 -22 -9 -9 -8 -15 8 -27 21 -16 21 -16 -58 -18 -31 0
-55 -4 -52 -9 3 -4 -3 -8 -13 -8 -21 0 -93 -61 -93 -79 0 -7 -4 -10 -8 -7 -5
3 -9 0 -9 -7 0 -7 -2 -19 -4 -27 -3 -10 5 -16 25 -18 21 -3 26 0 20 10 -6 11
-5 11 8 0 12 -9 18 -10 23 -2 5 8 11 8 21 -1 11 -9 18 -9 26 -1 7 7 21 12 33
12 11 0 27 9 35 19 7 11 17 18 22 15 4 -3 8 2 8 11 0 9 5 13 10 10 6 -4 10 5
10 20 0 24 -1 25 -23 10 -13 -8 -27 -12 -32 -8 -4 5 -5 2 -1 -4 5 -9 -2 -13
-23 -13 -17 0 -31 -4 -31 -10 0 -5 -11 -10 -25 -10 -31 0 -34 29 -5 37 11 3
20 9 20 14 0 5 9 9 21 9 11 0 17 5 14 10 -4 6 10 10 35 10 22 0 50 6 61 13 17
10 23 10 26 0 3 -7 13 -13 24 -13 10 0 19 -4 19 -10 0 -5 9 -10 20 -10 11 0
20 -4 20 -8 0 -4 12 -9 26 -10 15 -1 32 -6 38 -11 15 -12 80 -23 149 -24 33
-1 56 -6 54 -12 -2 -5 5 -18 16 -27 11 -10 16 -18 12 -18 -5 0 0 -7 11 -15 24
-18 51 -19 57 -2 4 9 6 9 6 -1 1 -19 52 35 54 57 1 12 7 17 19 13 10 -2 15 -8
12 -13 -3 -5 0 -9 5 -9 6 0 11 4 11 8 0 8 35 13 85 13 19 0 18 1 -2 12 -13 7
-35 12 -50 11 -16 0 -31 4 -35 10 -5 7 -8 5 -8 -6 0 -11 -6 -15 -20 -11 -11 3
-20 10 -20 15 0 5 -4 6 -10 3 -5 -3 -10 1 -10 9 0 16 -11 20 -39 17 -7 -2 -10
2 -6 8 10 17 -47 -11 -66 -31 -10 -11 -30 -18 -50 -18 -26 0 -30 3 -19 10 13
8 12 10 -2 10 -10 0 -18 -4 -18 -10 0 -11 -35 -8 -46 3 -4 4 -18 7 -31 7 -13
0 -22 4 -19 8 4 8 -15 12 -61 15 -17 1 -20 4 -11 14 15 19 -10 66 -30 58 -11
-4 -12 -2 -5 7 5 7 8 23 7 36 0 12 1 22 3 22 6 0 34 -28 33 -35 -1 -21 1 -25
10 -20 6 4 10 -6 10 -24 0 -16 5 -33 10 -36 6 -4 10 5 10 20 0 14 4 24 9 21 5
-3 3 11 -4 30 -14 42 -64 103 -83 104 -8 0 -10 5 -6 13 5 9 4 9 -6 0 -7 -6
-13 -27 -13 -46 -1 -22 -5 -33 -12 -30 -5 3 -4 0 3 -8 6 -7 12 -22 12 -33 1
-27 26 -60 39 -51 7 3 8 0 5 -9 -3 -9 -15 -16 -26 -16 -10 0 -16 5 -13 10 4 6
-7 10 -25 10 -18 0 -29 4 -25 10 6 9 -8 14 -28 11 -5 -1 -6 3 -3 8 4 5 2 12
-3 16 -6 3 -7 13 -4 22 4 11 3 14 -5 9 -9 -5 -12 6 -12 38 0 25 5 46 10 46 6
0 10 -9 10 -20 0 -11 4 -20 10 -20 5 0 9 -3 9 -7 -1 -5 0 -24 1 -43 l2 -35 14
33 c8 18 11 38 8 44 -5 7 -2 8 7 3 11 -7 12 -6 2 6 -6 8 -13 23 -15 34 -1 11
-11 29 -20 39 -10 11 -18 26 -18 33 0 7 -3 13 -6 13 -12 0 -44 -43 -38 -51 3
-5 2 -15 -3 -21 -11 -19 -10 -40 4 -68 9 -18 9 -27 1 -35 -7 -7 -12 -6 -15 3
-3 6 -11 12 -19 12 -9 0 -12 5 -9 10 4 6 3 10 -2 9 -24 -4 -35 3 -30 20 3 14
-1 19 -19 19 -23 0 -76 44 -68 56 2 3 1 4 -3 1 -3 -3 -12 3 -19 13 -8 11 -9
19 -2 23 5 4 3 9 -5 12 -9 3 -21 0 -27 -8z"/>
<path d="M1820 1144 c0 -9 -5 -12 -12 -8 -6 4 -8 3 -4 -4 3 -6 -1 -17 -9 -25
-8 -9 -15 -22 -15 -29 0 -7 -7 -22 -15 -32 -13 -17 -12 -22 5 -44 11 -13 17
-29 13 -35 -3 -5 -1 -7 5 -3 17 10 22 -7 7 -27 -7 -10 -22 -19 -33 -20 -11 0
-18 -5 -16 -9 3 -4 -6 -8 -19 -8 -14 0 -27 7 -30 14 -4 9 -1 13 6 10 32 -12
53 140 22 166 -12 10 -16 9 -22 -6 -4 -11 -19 -31 -35 -46 -15 -14 -28 -33
-28 -42 0 -9 -4 -16 -8 -16 -15 0 -10 -34 9 -62 21 -29 25 -53 7 -42 -7 4 -8
3 -4 -4 5 -8 -5 -12 -31 -13 -21 -1 -42 -1 -46 0 -5 1 -5 -3 -2 -9 9 -15 94
-10 121 7 11 7 24 10 29 6 4 -5 5 -2 1 5 -4 6 -16 12 -27 12 -11 0 -18 4 -15
9 3 5 0 11 -8 14 -15 6 -13 35 7 75 10 22 47 31 47 11 0 -5 -4 -7 -10 -4 -5 3
-10 1 -10 -4 0 -6 5 -11 10 -11 6 0 2 -10 -10 -22 -24 -26 -25 -32 -4 -52 17
-18 50 -21 59 -6 3 6 15 10 26 10 10 0 19 4 19 9 0 5 14 14 30 21 29 12 41 30
19 30 -6 0 -9 6 -6 13 3 7 -1 21 -9 32 -13 17 -14 17 -14 1 0 -9 4 -26 10 -36
7 -13 6 -19 -6 -24 -8 -3 -12 -2 -9 3 3 5 1 12 -5 16 -14 9 -12 77 4 98 20 26
26 21 26 -23 0 -42 19 -57 21 -17 5 74 1 104 -18 124 -16 17 -23 16 -23 -3z"/>
<path d="M1139 1038 c-5 -75 16 -159 34 -141 4 3 7 -1 7 -11 0 -9 5 -14 10
-11 6 3 10 -2 10 -11 0 -14 3 -15 12 -6 9 9 7 16 -7 32 -10 11 -15 20 -11 20
4 0 0 7 -8 16 -9 8 -14 19 -11 24 3 5 0 10 -7 12 -9 3 -9 6 0 12 7 4 12 2 12
-3 0 -6 8 -11 17 -11 9 0 13 -3 10 -6 -4 -4 1 -14 11 -23 10 -9 23 -27 29 -41
l12 -25 1 25 c3 40 -1 64 -14 72 -6 4 -7 8 -3 8 11 0 -19 30 -30 30 -5 0 -15
9 -23 20 -8 11 -20 20 -28 20 -7 0 -10 5 -7 10 3 6 1 10 -4 10 -6 0 -12 -10
-12 -22z"/>
<path d="M1573 1041 c-12 -12 -26 -21 -32 -21 -5 0 -12 -7 -15 -16 -3 -8 -11
-12 -16 -9 -6 4 -9 1 -8 -7 2 -7 -3 -12 -9 -10 -7 1 -13 -6 -13 -16 0 -10 -6
-24 -12 -31 -11 -11 -10 -12 2 -6 13 7 13 6 2 -7 -17 -21 -5 -53 14 -37 8 6
14 18 14 25 0 8 5 14 10 14 6 0 9 5 8 12 -2 6 7 17 19 23 13 7 21 15 18 18 -3
4 -2 5 2 2 9 -7 10 -64 0 -58 -9 5 -37 -22 -37 -37 0 -6 -5 -8 -12 -4 -7 4 -8
3 -4 -4 11 -18 39 -15 32 4 -3 8 -2 12 4 9 12 -8 40 18 40 37 0 8 5 19 11 25
5 5 9 34 7 62 l-3 52 -22 -20z"/>
<path d="M1920 1010 c0 -5 5 -10 10 -10 6 0 10 5 10 10 0 6 -4 10 -10 10 -5 0
-10 -4 -10 -10z"/>
<path d="M1900 999 c0 -7 -3 -10 -6 -6 -9 9 -36 -21 -29 -32 3 -6 12 -8 20 -5
8 4 12 10 9 15 -3 5 2 9 10 9 18 0 21 16 6 25 -5 3 -10 1 -10 -6z"/>
<path d="M1825 910 c-4 -6 -3 -10 2 -9 30 5 93 -3 88 -11 -3 -5 3 -10 15 -10
25 0 54 -25 45 -40 -3 -6 1 -7 9 -4 9 3 16 1 16 -5 0 -7 -14 -11 -34 -9 -19 1
-32 6 -30 10 3 4 -4 8 -15 8 -28 0 -33 2 -54 20 -10 8 -20 13 -24 12 -3 -2
-10 2 -14 10 -5 7 -9 8 -9 2 0 -5 8 -19 18 -30 10 -10 21 -27 25 -36 3 -10 13
-18 21 -18 8 0 16 -4 18 -10 2 -5 15 -11 31 -12 15 -1 27 -6 27 -10 0 -4 5 -8
11 -8 5 0 8 4 5 8 -3 5 1 9 9 9 8 0 12 -4 9 -9 -8 -12 10 -10 23 3 8 8 13 8
17 0 12 -19 46 -13 46 9 0 11 -4 20 -10 20 -5 0 -10 7 -10 15 0 18 -44 65 -60
65 -6 0 -8 5 -5 10 4 6 3 10 -2 9 -26 -5 -63 2 -58 11 4 6 -15 10 -49 10 -30
0 -58 -5 -61 -10z"/>
<path d="M1685 842 c-10 -10 7 -22 31 -22 13 0 24 -3 24 -8 0 -4 18 -18 40
-32 49 -30 55 -61 11 -58 -16 1 -27 6 -25 10 3 4 -1 8 -10 8 -8 0 -16 4 -18 8
-6 14 -69 54 -76 48 -3 -4 -1 -16 6 -26 7 -11 12 -24 12 -30 0 -16 47 -60 64
-60 8 0 18 -4 21 -10 3 -5 21 -10 40 -10 19 0 37 -4 40 -10 3 -5 15 -10 26
-10 11 0 17 -4 14 -10 -3 -5 -1 -10 4 -10 6 0 11 10 11 23 0 31 -25 99 -33 90
-4 -3 -7 1 -7 10 0 9 -5 17 -10 17 -5 0 -9 4 -7 9 1 5 -2 9 -6 9 -5 1 -17 10
-26 21 -10 12 -28 21 -40 21 -12 0 -20 4 -17 9 6 9 -61 21 -69 13z"/>
<path d="M980 829 c0 -5 -4 -8 -9 -4 -5 3 -16 -2 -24 -10 -9 -8 -21 -15 -28
-15 -7 0 -9 -3 -6 -7 4 -3 -3 -11 -16 -18 -12 -6 -21 -17 -19 -23 1 -7 -2 -12
-8 -12 -5 0 -10 -7 -10 -16 0 -8 -4 -13 -8 -10 -5 3 -9 -17 -11 -44 -2 -48 -2
-48 23 -37 13 6 22 16 18 22 -3 5 3 3 13 -5 11 -9 16 -10 11 -2 -5 8 2 12 26
13 18 1 37 1 41 0 5 -1 6 3 2 9 -5 9 15 15 38 11 4 0 6 5 5 12 -2 6 3 11 10 9
6 -1 12 5 12 14 0 8 5 12 10 9 6 -4 10 -3 9 2 -4 20 2 44 9 39 4 -2 9 9 10 25
1 16 -3 29 -8 29 -6 0 -8 -4 -5 -10 3 -5 1 -10 -5 -10 -5 0 -24 -13 -42 -30
-17 -16 -37 -30 -45 -30 -8 0 -11 -5 -8 -10 4 -7 -7 -10 -30 -8 -32 2 -35 4
-19 15 10 7 15 13 11 13 -4 0 3 11 15 24 13 13 25 24 28 24 24 0 31 4 27 15
-4 10 2 13 19 9 14 -2 24 0 24 7 0 6 -13 11 -30 11 -16 0 -30 -5 -30 -11z"/>
<path d="M1210 803 c-34 -11 -66 -29 -81 -45 -9 -10 -22 -18 -28 -18 -7 0 -10
-4 -7 -8 3 -5 -4 -15 -15 -22 -10 -8 -19 -26 -19 -40 0 -18 -3 -21 -9 -11 -12
18 -19 -85 -8 -105 7 -13 11 -13 25 3 9 10 26 20 37 21 11 2 22 8 23 13 2 5
11 9 21 9 22 0 91 63 91 83 0 9 5 19 10 22 6 3 10 22 10 41 0 29 -2 33 -14 22
-8 -7 -12 -15 -11 -16 6 -7 -59 -67 -95 -88 l-36 -21 -2 24 c-1 14 2 21 8 18
6 -3 10 1 10 10 0 22 24 45 47 45 15 0 16 2 3 10 -12 8 -11 10 5 10 11 0 27 9
35 19 7 11 18 17 23 14 6 -3 7 -1 3 5 -4 7 -8 12 -9 11 -1 0 -9 -3 -17 -6z"/>
<path d="M1500 794 c0 -8 4 -13 9 -9 5 3 16 -2 24 -10 9 -8 21 -15 27 -15 6 0
8 -4 5 -10 -3 -5 3 -10 14 -10 12 0 21 -7 21 -16 0 -9 5 -12 12 -8 6 4 8 3 4
-4 -3 -6 1 -18 10 -26 10 -10 13 -23 9 -34 -5 -12 -9 -13 -12 -4 -3 6 -11 12
-18 12 -7 0 -36 23 -64 50 -28 28 -53 50 -56 50 -3 0 -5 -13 -5 -30 0 -16 5
-30 11 -30 5 0 8 -4 4 -10 -3 -5 12 -27 33 -50 35 -35 57 -46 85 -41 5 1 6 -3
2 -9 -5 -8 7 -12 31 -9 3 0 14 -9 23 -20 10 -12 21 -21 25 -21 10 0 7 108 -4
115 -5 3 -10 15 -10 26 0 11 -4 17 -10 14 -5 -3 -10 -1 -10 5 0 14 -46 60 -60
60 -6 0 -9 4 -6 9 3 5 -2 11 -12 14 -9 3 -32 10 -49 15 -27 9 -33 8 -33 -4z"/>
<path d="M810 490 c-8 -5 -27 -11 -42 -15 -20 -4 -28 -12 -28 -26 0 -11 -5
-17 -10 -14 -7 4 -9 -22 -7 -76 2 -60 6 -84 17 -89 8 -4 25 -12 37 -18 13 -7
32 -12 43 -12 14 0 19 -4 14 -12 -5 -8 -2 -9 9 -5 12 5 17 1 17 -12 0 -11 6
-22 13 -24 10 -4 10 -6 0 -6 -7 -1 -13 -10 -13 -21 0 -11 -6 -20 -12 -21 -7 0
-21 -2 -30 -4 -14 -3 -18 4 -18 31 0 33 -1 34 -39 34 -35 0 -38 -2 -37 -27 0
-16 5 -31 11 -35 6 -5 5 -8 -2 -8 -19 0 -16 -12 11 -42 21 -25 30 -28 90 -28
44 0 66 4 66 12 0 6 3 8 7 5 18 -18 32 34 33 116 0 81 -1 87 -21 87 -11 0 -18
4 -15 8 3 5 -9 9 -26 10 -17 0 -34 6 -38 12 -4 7 -10 11 -14 11 -24 -3 -27 3
-24 47 3 41 6 47 27 50 28 4 39 -10 36 -47 -2 -25 1 -27 36 -30 l39 -2 0 45
c0 84 -18 101 -98 98 -12 -1 -20 3 -17 8 7 12 5 12 -15 0z"/>
<path d="M1506 489 c3 -5 -4 -9 -16 -9 -12 0 -18 -4 -15 -10 3 -5 1 -10 -4
-10 -6 0 -11 -9 -11 -21 0 -11 -4 -18 -8 -15 -5 3 -9 -1 -9 -9 0 -8 4 -12 9
-9 13 8 6 -29 -7 -38 -7 -5 -6 -8 0 -8 15 0 17 -50 2 -50 -7 0 -8 -3 -2 -8 16
-11 18 -52 3 -52 -10 0 -10 -2 1 -9 10 -6 10 -10 1 -16 -9 -6 -9 -10 1 -16 12
-8 11 -11 -1 -19 -8 -5 -10 -10 -5 -10 15 0 17 -50 2 -50 -8 0 -7 -3 3 -10 8
-5 11 -12 7 -16 -4 -4 -2 -13 4 -21 6 -7 8 -13 3 -13 -4 0 1 -7 12 -15 22 -17
189 -22 179 -5 -3 6 1 10 9 10 9 0 16 8 16 18 0 10 6 24 13 31 10 11 9 12 -3
6 -12 -6 -13 -5 -2 6 15 16 16 33 1 23 -8 -5 -8 -1 0 14 14 27 14 35 -1 26 -9
-5 -9 -2 1 9 11 14 11 17 0 17 -10 0 -10 3 -1 12 15 15 16 32 1 22 -8 -4 -8 0
0 15 12 22 6 26 -28 22 -7 -2 -11 1 -8 6 3 4 -10 8 -28 8 -18 0 -31 -3 -29 -7
3 -4 0 -8 -5 -8 -6 0 -11 -13 -11 -30 0 -26 8 -34 30 -32 3 0 6 -22 7 -49 l0
-49 -38 0 c-22 0 -39 5 -39 11 0 5 -6 7 -12 3 -10 -6 -10 -4 0 7 14 15 17 33
4 25 -5 -3 -9 1 -9 9 0 8 4 12 9 9 4 -3 8 2 8 11 0 9 -4 14 -8 11 -5 -3 -9 1
-9 9 0 8 4 12 9 9 13 -8 10 10 -4 25 -10 11 -10 13 0 7 8 -5 12 0 12 13 0 12
-4 21 -8 21 -5 0 -9 7 -9 15 0 8 4 12 9 9 4 -3 8 -1 8 5 0 5 -4 12 -8 15 -9 6
-8 27 3 64 6 17 15 22 42 22 19 0 32 -4 28 -9 -3 -5 -1 -12 5 -16 5 -3 10 -17
10 -31 0 -22 4 -25 38 -23 23 2 39 8 39 15 0 7 -5 11 -10 7 -5 -3 -4 4 2 15
13 25 14 35 3 28 -5 -3 -9 1 -9 9 0 8 4 12 8 9 4 -2 1 9 -7 26 -9 16 -22 30
-30 30 -8 0 -14 4 -14 8 0 5 -23 9 -50 9 -34 1 -48 -2 -44 -9 5 -7 2 -8 -7 -2
-20 12 -40 14 -33 3z"/>
<path d="M1733 493 c-10 -3 -13 -59 -13 -229 l0 -224 40 0 40 0 1 73 c1 39 1
75 0 79 0 3 7 5 17 4 10 -2 18 -13 20 -29 2 -15 8 -27 13 -27 5 0 9 -15 9 -32
1 -48 21 -69 63 -66 27 1 35 6 34 19 -1 10 -5 15 -9 13 -4 -3 -8 11 -8 31 0
22 -4 34 -10 30 -5 -3 -10 -2 -10 4 0 5 6 12 13 14 10 4 10 6 0 6 -19 1 -16
25 8 65 17 30 20 49 18 135 -1 55 -6 98 -11 95 -4 -3 -8 1 -8 8 0 7 -10 18
-23 24 -24 11 -162 16 -184 7z m127 -84 c0 -5 5 -7 10 -4 6 4 10 -18 10 -59 0
-56 -3 -66 -17 -66 -15 0 -16 -2 -3 -10 8 -5 10 -10 5 -10 -6 0 -17 6 -24 13
-10 8 -12 8 -7 0 4 -8 -1 -11 -14 -10 -18 1 -20 8 -20 79 l0 78 30 0 c17 0 30
-5 30 -11z"/>
<path d="M2045 491 c6 -11 4 -13 -7 -8 -19 7 -38 -11 -38 -36 0 -10 -4 -16 -8
-13 -13 8 -10 -298 2 -306 7 -5 7 -8 -2 -8 -8 0 -10 -5 -5 -12 8 -13 9 -18 12
-38 0 -5 8 -10 17 -10 8 0 12 -4 9 -10 -4 -6 23 -10 75 -10 52 0 79 4 75 10
-3 5 1 10 9 10 9 0 16 6 16 14 0 8 6 17 13 19 9 4 8 8 -3 16 -10 7 -11 11 -2
11 9 0 12 35 10 156 -1 85 -6 158 -10 160 -4 3 -8 14 -8 25 0 13 -7 19 -21 19
-11 0 -18 4 -15 8 3 5 -1 9 -9 9 -8 0 -11 -5 -8 -11 5 -7 2 -7 -8 0 -20 16
-82 16 -72 1 4 -7 -2 -5 -12 3 -15 12 -17 12 -10 1z m93 -223 l3 -148 -41 0
-40 0 2 145 c0 79 5 142 9 139 5 -3 9 0 9 6 0 6 12 10 28 8 l27 -3 3 -147z"/>
<path d="M2251 487 c-14 -14 -14 -30 0 -22 6 4 5 -3 -3 -14 -11 -18 -11 -23 2
-31 8 -5 10 -10 5 -10 -15 0 -17 -50 -2 -50 7 0 8 -3 2 -8 -16 -11 -18 -44 -3
-53 7 -5 8 -9 2 -9 -13 0 -13 -158 0 -179 7 -10 5 -12 -3 -6 -10 6 -10 3 0
-16 21 -41 32 -46 107 -48 74 -2 84 1 109 45 17 30 17 388 0 402 -13 11 -67
13 -65 3 0 -3 0 -88 -1 -189 l-1 -183 -37 3 -38 3 -1 100 c0 56 5 106 10 114
8 11 8 13 -2 7 -9 -6 -11 7 -9 59 2 36 0 68 -5 71 -4 3 -6 9 -4 13 8 13 -50
11 -63 -2z"/>
<path d="M2520 476 c0 -17 -2 -18 -10 -6 -9 13 -10 13 -10 0 0 -9 6 -22 13
-29 6 -8 7 -11 1 -8 -15 9 -16 -53 -1 -72 7 -9 8 -12 1 -8 -15 9 -16 -53 -1
-72 9 -11 9 -13 0 -8 -15 9 -13 -54 2 -65 7 -5 6 -8 -1 -8 -12 0 -11 -53 0
-85 6 -16 6 -17 -3 -5 -9 12 -10 10 -9 -13 1 -15 6 -27 11 -27 5 0 4 -7 -3
-15 -11 -13 -7 -15 29 -15 22 0 41 5 41 11 0 5 5 7 12 3 7 -5 8 -3 2 7 -11 18
-16 89 -8 109 4 8 7 18 6 21 0 3 5 6 13 6 8 0 12 -4 9 -9 -3 -4 0 -8 5 -8 6 0
11 5 11 10 0 6 5 10 11 10 5 0 7 -5 3 -12 -5 -7 -3 -8 7 -2 14 9 34 14 57 16
6 1 10 4 7 6 -3 3 1 15 8 26 17 26 22 206 6 206 -5 0 -8 4 -4 9 9 16 -23 39
-50 37 -13 -2 -22 0 -20 4 3 4 -27 7 -65 7 -64 0 -70 -2 -70 -21z m125 -66
c-3 -5 -1 -10 5 -10 8 0 11 -20 9 -57 -2 -47 -7 -60 -23 -70 -26 -15 -39 -16
-31 -3 3 6 0 10 -8 10 -9 0 -13 14 -14 50 0 33 3 47 11 43 6 -4 5 1 -3 10 -11
14 -11 17 0 17 11 0 11 2 -1 10 -11 7 -5 10 23 10 23 0 36 -4 32 -10z"/>
<path d="M160 480 c-32 -5 -35 -8 -36 -40 -1 -19 3 -41 8 -47 7 -9 7 -18 -2
-28 -9 -10 -9 -15 -1 -15 6 0 11 -5 11 -11 0 -5 -3 -8 -7 -6 -5 3 -9 -6 -10
-20 -1 -19 1 -22 8 -12 5 8 9 9 9 4 0 -6 -5 -16 -12 -23 -9 -9 -9 -12 0 -12 7
0 12 -5 12 -11 0 -5 -3 -8 -8 -5 -4 2 -7 -35 -7 -84 0 -48 3 -86 7 -83 5 2 8
0 8 -6 0 -5 -6 -12 -12 -14 -7 -3 6 -6 30 -6 47 -1 45 -6 43 129 -1 40 1 51 9
40 6 -10 10 -11 10 -2 0 8 16 12 48 12 46 0 48 1 48 28 -2 49 -19 57 -88 37
-18 -5 -20 -4 -8 4 13 9 13 11 -1 11 -13 0 -16 11 -16 48 l0 49 56 0 c31 1 62
1 69 2 7 1 12 15 12 34 l0 32 -73 0 c-39 0 -88 -2 -107 -5z"/>
<path d="M593 482 c-31 -3 -48 -22 -20 -22 8 0 8 -3 1 -8 -13 -9 -13 -191 0
-211 6 -10 6 -12 -2 -7 -9 5 -12 -8 -12 -43 0 -29 -5 -51 -11 -51 -5 0 -8 -4
-5 -8 2 -4 -5 -9 -17 -9 -17 -2 -19 0 -7 7 13 8 12 10 -2 10 -13 0 -18 8 -18
30 0 28 -3 30 -35 30 -41 0 -55 -21 -36 -52 7 -12 8 -17 2 -13 -14 8 -14 -1 1
-28 21 -41 35 -47 100 -47 59 1 107 18 91 33 -3 4 -1 7 5 7 14 0 18 376 5 382
-5 2 -23 2 -40 0z"/>
<path d="M1067 481 c-39 -12 -47 -33 -47 -123 0 -83 1 -89 23 -97 12 -5 25 -7
30 -4 4 2 7 -1 7 -6 0 -6 12 -11 26 -11 35 0 54 -22 54 -62 0 -23 -6 -37 -21
-46 -12 -8 -18 -9 -14 -3 3 6 -1 11 -9 11 -11 0 -16 9 -16 28 0 26 -3 28 -40
30 l-40 3 0 -51 c0 -28 5 -50 11 -50 5 0 7 -4 4 -10 -3 -5 1 -10 9 -10 9 0 16
-4 16 -10 0 -6 28 -10 65 -10 94 0 109 17 113 127 l3 82 -33 15 c-18 9 -45 17
-60 18 -15 1 -24 6 -22 10 3 4 -2 8 -11 8 -13 0 -16 10 -14 50 2 41 6 50 21
50 13 0 17 -4 12 -12 -5 -8 -2 -8 10 1 9 8 16 10 15 5 -1 -5 -1 -24 0 -42 1
-32 2 -33 39 -31 l38 3 1 46 c1 71 -18 90 -95 93 -34 1 -68 0 -75 -2z"/>
</g>
</svg>
